<svg width="58" height="58" viewBox="0 0 58 58" fill="none" xmlns="http://www.w3.org/2000/svg">
<path d="M29.1085 0.684738C28.3546 0.684738 27.6317 0.984201 27.0986 1.51725C26.5656 2.0503 26.2661 2.77326 26.2661 3.5271V9.21184C26.2661 9.96568 26.5656 10.6886 27.0986 11.2217C27.6317 11.7547 28.3546 12.0542 29.1085 12.0542C29.8623 12.0542 30.5853 11.7547 31.1183 11.2217C31.6514 10.6886 31.9508 9.96568 31.9508 9.21184V3.5271C31.9508 2.77326 31.6514 2.0503 31.1183 1.51725C30.5853 0.984201 29.8623 0.684738 29.1085 0.684738Z" fill="#3E3E40"/>
<path d="M54.6897 26.266H49.005C48.2511 26.266 47.5282 26.5655 46.9951 27.0985C46.4621 27.6316 46.1626 28.3546 46.1626 29.1084C46.1626 29.8622 46.4621 30.5852 46.9951 31.1183C47.5282 31.6513 48.2511 31.9508 49.005 31.9508H54.6897C55.4435 31.9508 56.1665 31.6513 56.6996 31.1183C57.2326 30.5852 57.5321 29.8622 57.5321 29.1084C57.5321 28.3546 57.2326 27.6316 56.6996 27.0985C56.1665 26.5655 55.4435 26.266 54.6897 26.266Z" fill="#7D7D80"/>
<path d="M12.0545 29.1084C12.0545 28.3546 11.7551 27.6316 11.222 27.0985C10.689 26.5655 9.966 26.266 9.21216 26.266H3.52743C2.77358 26.266 2.05062 26.5655 1.51757 27.0985C0.984521 27.6316 0.685059 28.3546 0.685059 29.1084C0.685059 29.8622 0.984521 30.5852 1.51757 31.1183C2.05062 31.6513 2.77358 31.9508 3.52743 31.9508H9.21216C9.966 31.9508 10.689 31.6513 11.222 31.1183C11.7551 30.5852 12.0545 29.8622 12.0545 29.1084Z" fill="#E1E1E6"/>
<path d="M12.6793 9.21186C12.1252 8.68794 11.3857 8.40558 10.6234 8.42691C9.86118 8.44823 9.13861 8.77148 8.61469 9.32556C8.09077 9.87963 7.80842 10.6191 7.82974 11.3814C7.85106 12.1437 8.17431 12.8662 8.72839 13.3901L12.8214 17.341C13.0961 17.6063 13.4214 17.8134 13.7779 17.9502C14.1344 18.0869 14.5147 18.1504 14.8963 18.1369C15.2792 18.1354 15.6578 18.0566 16.0095 17.9052C16.3612 17.7538 16.6786 17.5329 16.9428 17.2558C17.4722 16.7232 17.7694 16.0028 17.7694 15.2519C17.7694 14.501 17.4722 13.7806 16.9428 13.248L12.6793 9.21186Z" fill="#E1E1E6"/>
<path d="M43.3202 18.1368C44.052 18.1339 44.7545 17.8489 45.2814 17.341L49.3744 13.3901C49.8737 12.8684 50.1557 12.1762 50.1632 11.4541C50.1706 10.732 49.9029 10.0341 49.4144 9.50222C48.926 8.97033 48.2534 8.64432 47.5333 8.59038C46.8131 8.53644 46.0995 8.75863 45.5372 9.21181L41.4442 13.248C40.9148 13.7805 40.6177 14.5009 40.6177 15.2518C40.6177 16.0028 40.9148 16.7232 41.4442 17.2557C41.9363 17.7751 42.6062 18.0897 43.3202 18.1368Z" fill="#3E3E40"/>
<path d="M29.1085 46.1626C28.3546 46.1626 27.6317 46.4621 27.0986 46.9951C26.5656 47.5282 26.2661 48.2511 26.2661 49.005V54.6897C26.2661 55.4435 26.5656 56.1665 27.0986 56.6996C27.6317 57.2326 28.3546 57.5321 29.1085 57.5321C29.8623 57.5321 30.5853 57.2326 31.1183 56.6996C31.6514 56.1665 31.9508 55.4435 31.9508 54.6897V49.005C31.9508 48.2511 31.6514 47.5282 31.1183 46.9951C30.5853 46.4621 29.8623 46.1626 29.1085 46.1626Z" fill="#BBBBBF"/>
<path d="M45.395 40.8759C44.8523 40.352 44.1236 40.0651 43.3693 40.0784C42.6151 40.0918 41.897 40.4042 41.3731 40.9469C40.8492 41.4897 40.5623 42.2184 40.5756 42.9726C40.589 43.7269 40.9014 44.445 41.4441 44.9689L45.5371 49.005C46.0641 49.5129 46.7666 49.798 47.4984 49.8009C47.8792 49.8031 48.2566 49.7288 48.6082 49.5823C48.9598 49.4358 49.2783 49.2202 49.5449 48.9482C49.8113 48.684 50.0228 48.3696 50.1671 48.0232C50.3114 47.6769 50.3857 47.3053 50.3857 46.9301C50.3857 46.5549 50.3114 46.1834 50.1671 45.837C50.0228 45.4906 49.8113 45.1763 49.5449 44.912L45.395 40.8759Z" fill="#7D7D80"/>
<path d="M12.822 40.8758L8.72895 44.8267C8.46254 45.0909 8.25109 45.4053 8.10678 45.7517C7.96248 46.098 7.88818 46.4695 7.88818 46.8448C7.88818 47.22 7.96248 47.5915 8.10678 47.9379C8.25109 48.2842 8.46254 48.5986 8.72895 48.8628C8.99554 49.1348 9.31408 49.3505 9.66564 49.497C10.0172 49.6434 10.3946 49.7178 10.7755 49.7155C11.4761 49.7215 12.1543 49.4685 12.6798 49.005L16.7728 45.0541C17.3156 44.5301 17.628 43.8121 17.6414 43.0578C17.6547 42.3036 17.3678 41.5749 16.8439 41.0321C16.32 40.4894 15.6019 40.1769 14.8476 40.1636C14.0934 40.1503 13.3647 40.4371 12.822 40.9611V40.8758Z" fill="#BBBBBF"/>
</svg>
